<?xml version="1.0" encoding="utf-8"?>
<!-- Generator: Adobe Illustrator 26.5.0, SVG Export Plug-In . SVG Version: 6.00 Build 0)  -->
<svg version="1.1" id="Layer_1" xmlns="http://www.w3.org/2000/svg" xmlns:xlink="http://www.w3.org/1999/xlink" x="0px" y="0px"
	 viewBox="0 0 1080 1080" style="enable-background:new 0 0 1080 1080;" xml:space="preserve">
<style type="text/css">
	.st0{fill:#FFFFFF;}
</style>
<g>
	<g>
		<g>
			<g>
				<g>
					<path class="st0" d="M453.7,764.5l7.8,29.6H339.2V515.6h36.2v32.1c0,0,3.1,7.8,7.5,19.7c12.4,33.3,35.7,99.1,33.6,118.2
						c-2.8,25.9-2.8,64.2,17,73.8c4,1.9,10.8,3.5,19.1,4.9C453,764.4,453.3,764.5,453.7,764.5z"/>
					<path class="st0" d="M781.8,515.6v278.4H618.5l7.8-29.6c0.3,0,0.7-0.1,1-0.2c8.2-1.3,15-3,19.1-4.9c19.8-9.6,19.8-47.8,17-73.8
						c-2.1-19.1,21.2-84.9,33.6-118.2c4.4-11.9,7.5-19.7,7.5-19.7v-32.1H781.8z"/>
				</g>
			</g>
			<g>
				<path class="st0" d="M976.8,764.3c-23-1.6-38.7-6.2-47.1-13.6c-8.4-7.4-12.6-22.7-12.6-45.8v-550c0-23.1,4.2-38.4,12.6-45.8
					c8.4-7.4,24.1-12,47.1-13.6h11l7.9-31h-274v0H619l4,15.7c26.9,1.9,45.3,7.6,56.4,17.4c11.9,10.6,17.7,29.3,17.7,57.3v208.7h0
					v14.7h0v0.3l1-0.3l23.6-8l1.9-0.7l65.7-22.4l62.8-199.4l13.6,237.6l-117.4,76.5l-51.3,13.8v229.2c0,23.1-4.2,38.4-12.6,45.8
					c-8.4,7.4-24.1,12-47.2,13.6h-11l0,0.2l-7.8,29.6h377.2l-7.9-29.7H976.8z"/>
				<g>
					<path class="st0" d="M453.7,764.3h-11c-23.1-1.6-38.8-6.2-47.2-13.6c-8.4-7.4-12.6-22.7-12.6-45.8V475.7l-51.2-13.8
						l-117.5-76.5l13.7-237.6l62.8,199.4l63,21.5l1.9,0.6v0l26.3,9h0l0,0l0.6,0.2V154.9c0-28,5.8-46.7,17.7-57.3
						c11.1-9.8,29.5-15.5,56.4-17.4h0l4-15.7h-105v0H84.3l7.9,31h11c23,1.6,38.7,6.2,47.2,13.6c8.4,7.4,12.6,22.7,12.6,45.8v550
						c0,23.1-4.2,38.4-12.6,45.8c-8.4,7.4-24.1,12-47.2,13.6h-11l-7.9,29.7h377.2l-7.8-29.6L453.7,764.3z"/>
					<path class="st0" d="M659,120.5c-2.6-2.3-11.4-7.8-37.6-9.8l-22.3,0l-11.7-46.3h-95.1l-11.7,46.3l-22.3,0
						c-26.2,1.9-35,7.5-37.6,9.8c-1.7,1.5-7.4,8.6-7.4,34.4V358c81.1-13.1,165.8-11.9,253.3,0.7V154.9
						C666.4,129.1,660.7,122,659,120.5z"/>
				</g>
			</g>
		</g>
		<g>
			<g>
				<path class="st0" d="M205.3,923.4l1.8,22.5c-1.9,3.2-4.5,6-7.8,8.4c-3.4,2.5-7.4,4.4-12.3,5.9c-4.8,1.5-10.5,2.2-16.9,2.2
					c-11-0.1-20.6-2-28.6-5.6c-8-3.6-14.2-8.9-18.5-15.8c-4.3-6.9-6.5-15.2-6.5-25.1c0-9.7,2.1-17.9,6.4-24.8
					c4.2-6.9,10.4-12.1,18.4-15.8c8-3.7,17.6-5.5,28.8-5.5c6.7,0,13,0.6,18.8,1.9c5.8,1.3,10.6,2.9,14.4,4.9v23.5h-1.2
					c-2.5-9.1-6.3-15.4-11.6-19c-5.3-3.6-11.6-5.4-18.9-5.4c-7.1,0-13,1.7-17.8,5c-4.8,3.3-8.4,8-10.7,14c-2.4,6-3.6,13-3.6,21
					c0,8.2,1.2,15.3,3.6,21.4c2.4,6.1,5.9,10.8,10.5,14.1c4.6,3.4,10.1,5.1,16.5,5.3c7,0,12.8-1.1,17.3-3.3
					c4.5-2.2,8.2-5.7,10.9-10.5c2.7-4.8,4.7-11.3,5.8-19.4H205.3z"/>
				<path class="st0" d="M264.1,869.8c7.9,0,15.1,1.1,21.5,3.2c6.5,2.1,12,5.2,16.6,9.2c4.6,4,8.2,8.9,10.7,14.6
					c2.5,5.7,3.7,12.2,3.7,19.5c0,7.1-1.2,13.5-3.7,19.2c-2.5,5.7-6,10.5-10.7,14.6c-4.6,4-10.2,7.1-16.6,9.2
					c-6.5,2.1-13.6,3.2-21.5,3.2c-7.8,0-14.9-1.1-21.3-3.2c-6.4-2.1-12-5.2-16.6-9.2c-4.7-4-8.3-8.9-10.7-14.6
					c-2.5-5.7-3.7-12.1-3.7-19.2c0-7.3,1.2-13.8,3.7-19.5c2.5-5.7,6-10.5,10.7-14.6c4.7-4,10.2-7.1,16.6-9.2
					C249.2,870.9,256.3,869.8,264.1,869.8z M264.1,956.5c6,0,11.2-1.6,15.6-4.9c4.4-3.3,7.8-7.9,10.2-13.9c2.4-6,3.6-13.2,3.6-21.5
					c0-8.4-1.2-15.6-3.6-21.7c-2.4-6.1-5.8-10.7-10.2-14c-4.4-3.3-9.6-4.9-15.6-4.9c-5.9,0-11.1,1.6-15.5,4.9
					c-4.4,3.3-7.8,7.9-10.2,14c-2.4,6.1-3.6,13.3-3.6,21.7c0,8.3,1.2,15.4,3.6,21.5c2.4,6,5.8,10.7,10.2,13.9
					C253,954.9,258.2,956.5,264.1,956.5z"/>
				<path class="st0" d="M348.3,881.4h-23.4c-1.1-2.8-2.7-4.8-4.7-6.1c-2.1-1.3-4.3-2-6.8-2h-1v-1.5h41.9v1.5h-1.3
					c-1.6,0-3,0.6-4.2,1.9C347.4,876.5,347.3,878.5,348.3,881.4z M321.5,872.7h23.4l19.8,52.1l-8.4,37.4L321.5,872.7z M387.8,869.7
					l2.8,13.6l-29.7,63.9c-1.1,3-1.9,5.6-2.5,7.8c-0.6,2.3-0.9,4.6-0.9,7.1h-1.2l-4-16.6l34.3-75.9H387.8z M387.8,869.7l29.1,57.8
					l-7.1,34.6L378,898.5L387.8,869.7z M437.8,872.7l-24.3,74.6c-1,3.2-1.7,5.9-2,8.2c-0.3,2.3-0.5,4.6-0.4,6.7h-1.3l-4.1-13.3
					l22.5-76.2H437.8z M425.6,881.2c0.8-2.8,0.6-4.8-0.6-6.1c-1.2-1.3-2.6-1.9-4.3-1.9h-1v-1.5h27.8v1.5h-1c-2.4,0-4.7,0.7-6.9,2
					c-2.2,1.3-3.8,3.4-4.7,6.1L425.6,881.2z"/>
				<path class="st0" d="M504.6,869.8c2,0,4.4,0.1,7.2,0.3c2.8,0.2,5.6,0.4,8.5,0.7c2.9,0.2,5.3,0.5,7.5,0.9c2.1,0.3,3.5,0.7,4.2,1
					l-1.9,18h-1.2c0-4.4-1.6-8-4.8-10.7c-3.2-2.7-7.8-4.1-13.7-4.1c-4.7,0-8.6,1-11.5,3.1c-2.9,2.1-4.5,4.8-4.7,8.3
					c-0.1,1.8,0.3,3.4,1.1,4.8c0.8,1.4,2,2.7,3.6,3.8c1.5,1.1,3.2,2.1,5.1,3.1l23.1,14.2c3.9,2,7.1,4.9,9.4,8.7
					c2.3,3.8,3.3,8.4,3,13.7c-0.3,5.6-1.9,10.5-4.8,14.5c-2.9,4-6.9,7.1-12.1,9.2c-5.1,2.1-11.2,3.2-18.2,3.2c-4.2,0-8.2-0.3-11.8-1
					c-3.7-0.7-6.8-1.6-9.4-2.8c-2.6-1.2-4.7-2.6-6.1-4.1c-0.8-1.9-1.1-4.2-1-7.1c0.1-2.9,0.6-5.7,1.4-8.5c0.8-2.8,1.8-5.2,3-7h1.2
					c-0.3,4.4,0.5,8.5,2.4,12.3c1.9,3.8,4.8,6.7,8.5,9c3.7,2.2,8.3,3.4,13.6,3.5c5.7,0,10-1.3,12.8-4s4.2-5.8,4.2-9.3
					c0-2.7-0.9-5.1-2.7-7.2c-1.8-2.1-4.6-4.2-8.6-6.3l-20.7-13c-5-2.6-8.7-6-10.9-10.3c-2.3-4.3-3.1-9-2.4-14.1
					c0.5-4.7,1.9-8.8,4.2-12.1c2.3-3.4,5.4-5.9,9.2-7.7C495.3,870.7,499.7,869.8,504.6,869.8z M532.2,871.2l-0.1,2.7h-16v-2.7H532.2
					z"/>
				<path class="st0" d="M555.2,881.1h-0.4c0-2.3-0.8-4.1-2.4-5.6c-1.6-1.5-3.5-2.2-5.8-2.2c-0.1,0-0.6,0-1.6,0v-1.5h10.2V881.1z
					 M555.2,951.2l0.6,9.3H545v-1.5c1.1,0,1.7,0,1.8,0c2.2,0,4-0.8,5.6-2.3c1.6-1.5,2.4-3.4,2.4-5.5H555.2z M576.5,871.8v88.8h-21.7
					v-88.8H576.5z M576.1,881.1v-9.3h10.2v1.5h-1.6c-2.3,0-4.2,0.7-5.8,2.2c-1.6,1.5-2.4,3.4-2.4,5.6H576.1z M610.9,954.6l3.7,5.9
					h-38.3v-5.9H610.9z M620.6,933.2l-5.8,27.4h-25.6l4.6-5.9c4.2,0,8-0.9,11.3-2.7c3.3-1.8,6.1-4.2,8.5-7.4c2.4-3.2,4.2-7,5.5-11.4
					H620.6z"/>
				<path class="st0" d="M634.5,950.9c-1.1,2.6-0.9,4.6,0.4,6c1.4,1.4,2.9,2.1,4.6,2.1h1.2v1.5h-29.6v-1.5h1.2c2,0,4-0.6,6.2-1.8
					c2.2-1.2,3.9-3.3,5.3-6.3H634.5z M662.3,867.6l0.3,18l-32.1,74.4h-10.9l34.6-74.4c0.2-0.6,0.7-1.7,1.4-3.2
					c0.7-1.5,1.5-3.3,2.3-5.2c0.8-1.9,1.5-3.8,2.1-5.5c0.6-1.8,1-3.2,1.1-4.1H662.3z M675.1,931.7v5.9h-37.6v-5.9H675.1z
					 M662.3,867.6l43.9,92.2H681l-27.5-64.5L662.3,867.6z M677.1,950.9h25c1.4,3,3.2,5.1,5.3,6.3c2.2,1.2,4.2,1.8,6.2,1.8h1.2v1.5
					h-43.9v-1.5h1.2c1.7,0,3.2-0.7,4.6-2.1C678.1,955.5,678.2,953.5,677.1,950.9z"/>
				<path class="st0" d="M739.1,880.9l-24.4-0.4c-1.4-2.1-3.2-3.8-5.5-5.2c-2.3-1.4-4.8-2.1-7.5-2.1h-1.8v-1.5h45.3v1.5h-1.6
					c-2,0-3.5,0.8-4.4,2.5C738.1,877.4,738.1,879.2,739.1,880.9z M733.8,871.9l28,48.1l-20.1,2.2l-32.4-50.3H733.8z M741.4,951.2
					v9.3h-10.5v-1.5c1.1,0,1.7,0,1.8,0c2.3,0,4.2-0.8,5.8-2.3c1.6-1.5,2.4-3.4,2.5-5.5H741.4z M762.7,920.3v40.2h-21.7v-40.1
					L762.7,920.3z M783.5,871.9h10.8L761,923.3l-7-1.3L783.5,871.9z M762.2,951.2h0.4c0.1,2.2,0.9,4,2.5,5.5
					c1.6,1.5,3.5,2.3,5.8,2.3h1.6v1.5h-10.4V951.2z M778.2,880.9c1.1-1.9,1.1-3.6,0-5.3c-1.1-1.6-2.6-2.4-4.6-2.4H772v-1.5h31.7v1.5
					h-1.8c-2.8,0-5.3,0.7-7.5,2.1c-2.3,1.4-4.1,3.1-5.5,5.1L778.2,880.9z"/>
				<path class="st0" d="M808.1,881.1h-0.4c0-2.3-0.8-4.1-2.4-5.6c-1.6-1.5-3.5-2.2-5.6-2.2c-0.1,0-0.7,0-1.8,0v-1.5h10.8
					L808.1,881.1z M808.1,951.2l0.6,9.3h-10.8v-1.5c1.1,0,1.7,0,1.8,0c2.2,0,4-0.8,5.6-2.3c1.6-1.5,2.4-3.4,2.4-5.5H808.1z
					 M829.4,871.8v88.8h-21.7v-88.8H829.4z M865.5,871.8v5.9h-36.4v-5.9H865.5z M858.8,913.5v6.1h-29.7v-6.1H858.8z M863.7,954.6
					l3.7,5.9h-38.3v-5.9H863.7z M873.3,933.2l-5.6,27.4h-25.6l4.6-5.9c4.2,0,8-0.9,11.3-2.7c3.3-1.8,6.1-4.2,8.5-7.4
					c2.4-3.2,4.2-7,5.5-11.4H873.3z M858.8,900.8v13h-13v-0.3c3.6,0,6.4-1.1,8.4-3.4c2.1-2.3,3.1-5.1,3.1-8.4v-0.9H858.8z
					 M858.8,919.3v13.2h-1.5v-1c0-3.4-1-6.1-3.1-8.4c-2.1-2.2-4.9-3.4-8.4-3.5v-0.3H858.8z M865.5,869.5v3.6l-15.5-1.3
					c2.9,0,5.9-0.3,9-0.8C862.1,870.4,864.3,869.9,865.5,869.5z M865.5,877.4v15.8H864V892c0-4.4-1.2-7.9-3.6-10.4
					c-2.4-2.5-5.7-3.8-10.1-3.9v-0.3H865.5z"/>
				<path class="st0" d="M886.5,880.9H886c0-2.3-0.8-4.1-2.3-5.5c-1.5-1.4-3.4-2.1-5.5-2.1c-0.2,0-0.5,0-1,0c-0.4,0-0.7,0-0.8,0
					v-1.5h10.5L886.5,880.9z M886.5,951.2l0.4,9.3h-10.5v-1.5c0.1,0,0.3,0,0.7,0c0.4,0,0.7,0,1,0c2.1,0,3.9-0.8,5.5-2.3
					c1.6-1.5,2.4-3.4,2.4-5.5H886.5z M907.8,871.8v88.8H886v-88.8H907.8z M922.1,871.8c4,0,8,0.4,11.8,1.2c3.8,0.8,7.3,2.1,10.4,3.9
					c3.1,1.8,5.6,4.3,7.4,7.4c1.8,3.1,2.7,7,2.7,11.8c0,3.4-0.7,6.8-2.1,10.2c-1.4,3.5-3.7,6.4-6.7,8.9c-3,2.5-6.9,4.1-11.8,4.9
					c3,0.9,5.7,2.6,8.4,5.3c2.6,2.6,4.7,5.1,6.1,7.3c0.4,0.7,1.1,1.9,2.1,3.6c1,1.7,2.2,3.7,3.8,6c1.5,2.3,3.1,4.5,4.7,6.8
					c2,2.7,3.7,4.7,5.3,6.2c1.5,1.5,3.1,2.5,4.6,3c1.5,0.5,3.3,0.8,5.4,0.8v1.5h-12.7c-5.3,0-9.8-0.4-13.5-1.2
					c-3.7-0.8-6.9-2.2-9.6-4.3c-2.7-2.1-5.3-5-7.6-8.7c-0.8-1.4-1.7-3-2.7-4.7c-1-1.8-2-3.6-2.9-5.5c-0.9-1.9-1.7-3.7-2.4-5.5
					c-0.7-1.8-1.3-3.3-1.7-4.6c-1.2-3.1-2.6-5.3-4.2-6.7c-1.6-1.4-3.1-2.1-4.4-2.1v-1.3c1.3,0,2.5,0,3.6,0c2.1,0,4.1-0.4,6.1-1.2
					c2-0.8,3.8-2.2,5.5-4.3c1.6-2.1,2.8-5.2,3.6-9.3c0.1-0.6,0.2-1.4,0.4-2.5c0.1-1.1,0.2-2.3,0.1-3.7c-0.2-3.6-0.9-6.6-2-8.8
					c-1.1-2.2-2.5-3.9-4.2-5c-1.7-1.1-3.4-1.9-5-2.4c-1.7-0.4-3.2-0.7-4.4-0.7c-1.8-0.1-3.4-0.1-4.9-0.1c-1.5,0.1-2.6,0.1-3.4,0.1
					c-0.1-0.1-0.2-0.6-0.4-1.6c-0.2-1-0.5-2.5-0.9-4.6H922.1z M907.5,951.2h0.3c0,2.5,0.9,4.4,2.6,5.8c1.7,1.4,3.5,2.1,5.4,2.1
					c0.9,0,1.4,0,1.6,0v1.5h-10.5L907.5,951.2z"/>
			</g>
		</g>
	</g>
</g>
</svg>
