<?xml version="1.0" encoding="utf-8"?>
<!-- Generator: Adobe Illustrator 26.5.0, SVG Export Plug-In . SVG Version: 6.00 Build 0)  -->
<svg version="1.1" id="Layer_1" xmlns="http://www.w3.org/2000/svg" xmlns:xlink="http://www.w3.org/1999/xlink" x="0px" y="0px"
	 viewBox="0 0 1080 1080" style="enable-background:new 0 0 1080 1080;" xml:space="preserve">
<style type="text/css">
	.st0{fill:#F2F2F2;}
</style>
<g>
	<g>
		<g>
			<rect x="168.9" y="463.1" class="st0" width="30.9" height="39.7"/>
		</g>
		<g>
			<polygon class="st0" points="387.5,433.9 387.5,340.4 35.4,340.4 35.4,433.9 109.9,463.4 109.9,502.7 35.4,532.2 35.4,692.5 
				125.9,692.5 145.7,546.8 145.7,526.1 129.8,526.1 129.8,502.8 145.7,502.8 145.7,463.1 129.8,463.1 129.8,439.9 129.8,439.9 
				145.7,425.1 168.9,403.4 211.5,363.7 254,403.4 277.2,425.1 293.2,439.9 293.2,439.9 293.2,463.1 277.2,463.1 277.2,502.8 
				293.2,502.8 293.2,526.1 277.2,526.1 277.2,546.9 297,692.5 387.5,692.5 387.5,532.2 313.1,502.7 313.1,463.4 			"/>
		</g>
		<g>
			<rect x="223.1" y="463.1" class="st0" width="30.9" height="39.7"/>
		</g>
	</g>
	<g>
		<path class="st0" d="M535.2,382.4v115.3h-51.6V382.4h-50.3v-40.1h153.9v40.1H535.2z"/>
		<path class="st0" d="M595.9,342.3h52.9l18.3,102.7l2.1,8.7h1.9L691,342.3h63.7l19.8,111.5h1.9l2.1-9.2l18.8-102.3H850l-35.2,155.4
			h-75l-13.2-79.1l-2.6-12.8h-2.1l-2.1,12.8l-13.4,79.1h-75.2L595.9,342.3z"/>
		<path class="st0" d="M895.1,490.8c-14.3-6-25.5-14.8-33.7-26.4c-8.2-11.6-12.3-25.7-12.3-42.3v-4.3c0-16.6,4.1-30.7,12.3-42.2
			c8.2-11.5,19.4-20.3,33.7-26.3c14.3-6,30.5-9.1,48.7-9.1c18.3,0,34.6,3,48.9,9.1c14.3,6,25.5,14.8,33.7,26.3
			c8.2,11.5,12.3,25.6,12.3,42.2v4.3c0,16.6-4.1,30.7-12.3,42.3c-8.2,11.6-19.4,20.4-33.7,26.4c-14.3,6-30.6,9.1-48.9,9.1
			C925.6,499.8,909.3,496.8,895.1,490.8z M973.9,450.8c6.6-5.8,9.9-13.1,9.9-22v-17.7c0-8.8-3.3-16.1-9.9-22
			c-6.6-5.8-16.7-8.7-30.2-8.7c-13.5,0-23.5,2.9-30.2,8.7c-6.6,5.8-9.9,13.1-9.9,22v17.7c0,8.8,3.3,16.1,9.9,22
			c6.6,5.8,16.7,8.7,30.2,8.7C957.3,459.6,967.3,456.6,973.9,450.8z"/>
		<path class="st0" d="M460,532.5h144.9v39.2h-92.7v28.3h81.6V637h-81.6v50.9H460V532.5z"/>
		<path class="st0" d="M647.9,532.5h71.6l63.1,155.4h-51.6l-10.4-26.4H645l-10.9,26.4h-49.7L647.9,532.5z M707,626.7l-14.1-33.2
			l-9.4-25.4h-1.7l-9.4,25.6l-14.1,33H707z"/>
		<path class="st0" d="M789,532.5h105.5c20.7,0,36.1,4.4,46.1,13.2c10,8.8,15,21.5,15,37.9c0,12.9-3.9,23.4-11.6,31.5
			c-7.7,8.1-17.9,13.1-30.6,15.1l43.3,57.5h-63.9l-34.5-49.2h-17v49.2H789V532.5z M841.2,572.2v30.3H879c7.4,0,12.5-1.2,15.3-3.6
			c2.8-2.4,4.3-5.6,4.3-9.6v-3.8c0-5-1.7-8.4-5.2-10.3c-3.5-1.9-8.3-2.9-14.4-2.9H841.2z"/>
	</g>
</g>
</svg>
